<mxfile host="app.diagrams.net" modified="2024-07-01T14:48:28.061Z" agent="Mozilla/5.0 (Linux; Android 10; K) AppleWebKit/537.36 (KHTML, like Gecko) Chrome/126.0.0.0 Mobile Safari/537.36" version="24.2.5" etag="WYgWAPE2Y9n6sW8KVZov" type="github">
  <diagram name="Page-1" id="eIPXTjufv0zJOIAFMCcY">
    <mxGraphModel>
      <root>
        <mxCell id="0" />
        <mxCell id="1" parent="0" />
      </root>
    </mxGraphModel>
  </diagram>
</mxfile>
